Coordinates
version=1
nRows=7
nColumns=40
inDegrees=yes

Units are S.I. units (second, meters, Newtons, ...)
Angles are in degrees.

endheader
time	pelvis_tilt	pelvis_list	pelvis_rotation	pelvis_tx	pelvis_ty	pelvis_tz	hip_flexion_r	hip_adduction_r	hip_rotation_r	knee_angle_r	knee_angle_r_beta	ankle_angle_r	subtalar_angle_r	mtp_angle_r	hip_flexion_l	hip_adduction_l	hip_rotation_l	knee_angle_l	knee_angle_l_beta	ankle_angle_l	subtalar_angle_l	mtp_angle_l	lumbar_extension	lumbar_bending	lumbar_rotation	arm_flex_r	arm_add_r	arm_rot_r	elbow_flex_r	pro_sup_r	wrist_flex_r	wrist_dev_r	arm_flex_l	arm_add_l	arm_rot_l	elbow_flex_l	pro_sup_l	wrist_flex_l	wrist_dev_l
     30.30750000	     -2.26822862	     -4.02804983	      5.90537401	      1.01448590	      0.91894348	      0.52657234	     -3.99247567	      3.17255936	    -18.06956120	     13.94701808	     13.94701808	     19.50125930	     -1.33627190	     -2.16011563	     26.73539730	     -4.94315406	      1.91297292	     28.16163248	     28.16163248	      7.25103854	    -14.49548006	      4.98305769	     -6.36872530	      3.62037882	      4.71222485	     50.29535284	    -19.52159891	     -9.76502674	     81.14619021	     44.87766794	      0.00000000	      0.00000000	     -7.75370242	     -7.76769644	     -4.87991853	     38.10838636	     45.79026765	      0.00000000	      0.00000000
     30.32714286	     -2.37413473	     -3.84730601	      5.62288476	      1.01511393	      0.91957121	      0.52219752	     -3.84429111	      2.42354039	    -18.00062097	     14.94408370	     14.94408370	     19.37537533	     -1.32097617	     -2.34199430	     26.27968267	     -4.57460142	      1.59722880	     28.17895344	     28.17895344	      7.73128866	    -14.62567529	      4.90831951	     -6.35948048	      3.59019319	      4.75095496	     49.61407965	    -19.21740582	     -9.87534627	     79.82670102	     44.92980060	      0.00000000	      0.00000000	     -6.25370761	     -7.79719869	     -4.99382576	     38.04711221	     45.82413296	      0.00000000	      0.00000000
     30.34678571	     -2.45578165	     -3.65610659	      5.33223294	      1.01578460	      0.92047141	      0.51774762	     -3.60494855	      1.61718263	    -17.91023261	     16.15066656	     16.15066656	     19.15658627	     -1.40601176	     -2.57906670	     25.67643157	     -4.21442375	      1.16500689	     27.98685857	     27.98685857	      8.17647602	    -14.61749297	      4.82235914	     -6.36033793	      3.55332433	      4.70151637	     48.75685777	    -18.80635777	     -9.97038695	     78.39630120	     44.98227779	      0.00000000	      0.00000000	     -4.68981072	     -7.86214585	     -5.04915235	     37.86535808	     45.85112884	      0.00000000	      0.00000000
     30.36642857	     -2.56382702	     -3.51965539	      5.02877148	      1.01638598	      0.92150530	      0.51325282	     -3.19213399	      0.81058959	    -17.78367597	     17.58783541	     17.58783541	     18.84846434	     -1.51423941	     -2.96744403	     25.05711126	     -3.90909662	      0.71078176	     27.68351420	     27.68351420	      8.52190784	    -14.57132517	      4.72193780	     -6.32559323	      3.57808829	      4.53692513	     47.81033921	    -18.30569942	    -10.19158138	     76.49438112	     45.05513085	      0.00000000	      0.00000000	     -2.94951540	     -7.90551012	     -5.01884181	     37.28398558	     45.86919441	      0.00000000	      0.00000000
     30.38607143	     -2.64774954	     -3.37164418	      4.74075089	      1.01708800	      0.92264728	      0.50868212	     -2.74039940	     -0.02482922	    -17.60115755	     19.13162628	     19.13162628	     18.33933675	     -1.75468745	     -3.70605446	     24.35220738	     -3.57443726	      0.26989209	     27.28343137	     27.28343137	      8.83065351	    -14.50820869	      4.48544057	     -6.21705031	      3.62569746	      4.27824422	     46.87913427	    -17.56949478	    -10.65182305	     73.72299871	     45.16927172	      0.00000000	      0.00000000	     -0.91264406	     -7.99756452	     -4.81143074	     35.82737129	     45.86878813	      0.00000000	      0.00000000
     30.40571429	     -2.63672312	     -3.17303962	      4.42309418	      1.01786669	      0.92404854	      0.50405852	     -2.28953918	     -0.93043468	    -17.29511614	     20.84451309	     20.84451309	     17.83849339	     -2.16271037	     -4.17155154	     23.40770393	     -3.21761721	     -0.30459130	     26.65436912	     26.65436912	      9.15314043	    -14.24332612	      4.37488292	     -6.32581694	      3.63124650	      4.01289120	     45.34148773	    -17.12736527	    -10.64770720	     72.34713214	     45.21073276	      0.00000000	      0.00000000	      0.64373211	     -8.17051618	     -4.70783288	     35.83064139	     45.87829655	      0.00000000	      0.00000000
     30.42535714	     -2.69143185	     -2.98697043	      4.08560958	      1.01857288	      0.92520906	      0.49946305	     -1.55817478	     -1.87856474	    -16.91907011	     22.91663358	     22.91663358	     17.21946992	     -2.73660098	     -4.95036458	     22.59803225	     -2.85238209	     -0.84101999	     26.11432901	     26.11432901	      9.44575692	    -14.04925595	      4.18850390	     -6.27807656	      3.64060431	      3.85170627	     43.72373943	    -16.80361541	    -10.82708956	     70.28087658	     45.28171769	      0.00000000	      0.00000000	      2.40146118	     -8.34852442	     -4.43764298	     35.52313509	     45.86967571	      0.00000000	      0.00000000
